G04*
G04 #@! TF.GenerationSoftware,Altium Limited,Altium Designer,25.2.1 (25)*
G04*
G04 Layer_Color=128*
%FSLAX44Y44*%
%MOMM*%
G71*
G04*
G04 #@! TF.SameCoordinates,DD8B7BEB-8506-42D0-99FA-5800EA924771*
G04*
G04*
G04 #@! TF.FilePolarity,Positive*
G04*
G01*
G75*
%ADD24R,0.9000X1.0000*%
%ADD25R,2.0000X4.0000*%
%ADD26R,0.8500X1.0000*%
%ADD27R,1.5057X1.8582*%
%ADD28R,0.7425X1.5575*%
G04:AMPARAMS|DCode=29|XSize=1.5575mm|YSize=0.7425mm|CornerRadius=0.3712mm|HoleSize=0mm|Usage=FLASHONLY|Rotation=90.000|XOffset=0mm|YOffset=0mm|HoleType=Round|Shape=RoundedRectangle|*
%AMROUNDEDRECTD29*
21,1,1.5575,0.0000,0,0,90.0*
21,1,0.8150,0.7425,0,0,90.0*
1,1,0.7425,0.0000,0.4075*
1,1,0.7425,0.0000,-0.4075*
1,1,0.7425,0.0000,-0.4075*
1,1,0.7425,0.0000,0.4075*
%
%ADD29ROUNDEDRECTD29*%
%ADD30R,2.0800X3.8100*%
%ADD31R,11.4300X8.8900*%
%ADD32R,0.9621X0.9581*%
%ADD33R,1.5082X1.1587*%
%ADD34R,1.2000X2.7000*%
%ADD35R,1.0637X1.0621*%
%ADD36R,0.9000X1.2000*%
%ADD37R,1.0000X2.6000*%
%ADD38R,1.0500X1.4000*%
%ADD39R,1.5200X0.6000*%
G04:AMPARAMS|DCode=40|XSize=0.65mm|YSize=1.2mm|CornerRadius=0.0488mm|HoleSize=0mm|Usage=FLASHONLY|Rotation=90.000|XOffset=0mm|YOffset=0mm|HoleType=Round|Shape=RoundedRectangle|*
%AMROUNDEDRECTD40*
21,1,0.6500,1.1025,0,0,90.0*
21,1,0.5525,1.2000,0,0,90.0*
1,1,0.0975,0.5513,0.2763*
1,1,0.0975,0.5513,-0.2763*
1,1,0.0975,-0.5513,-0.2763*
1,1,0.0975,-0.5513,0.2763*
%
%ADD40ROUNDEDRECTD40*%
D24*
X445260Y1173480D02*
D03*
X446150Y1120140D02*
D03*
X430150D02*
D03*
X429260Y1173480D02*
D03*
D25*
X485140Y932240D02*
D03*
Y1003240D02*
D03*
D26*
X601980Y975360D02*
D03*
X588480D02*
D03*
X965670Y909320D02*
D03*
X979170D02*
D03*
D27*
X853917Y913130D02*
D03*
X883442D02*
D03*
D28*
X501650Y1192036D02*
D03*
D29*
Y1226044D02*
D03*
D30*
X647700Y1087120D02*
D03*
X596900D02*
D03*
D31*
X622300Y1201420D02*
D03*
D32*
X400050Y1074420D02*
D03*
Y1088960D02*
D03*
D33*
X394970Y985306D02*
D03*
Y1005840D02*
D03*
D34*
X653520Y1016000D02*
D03*
X682520D02*
D03*
D35*
X783668Y913130D02*
D03*
X767080D02*
D03*
D36*
X611210Y928370D02*
D03*
X590210D02*
D03*
D37*
X1011390Y969010D02*
D03*
X1038390D02*
D03*
D38*
X606400Y1026160D02*
D03*
X587400D02*
D03*
D39*
X705040Y952500D02*
D03*
Y939800D02*
D03*
Y927100D02*
D03*
Y914400D02*
D03*
X650240Y952500D02*
D03*
Y939800D02*
D03*
Y927100D02*
D03*
Y914400D02*
D03*
X1025620Y1087120D02*
D03*
Y1074420D02*
D03*
Y1061720D02*
D03*
Y1049020D02*
D03*
X970820Y1087120D02*
D03*
Y1074420D02*
D03*
Y1061720D02*
D03*
Y1049020D02*
D03*
D40*
X979470Y977240D02*
D03*
Y958240D02*
D03*
X953470Y967740D02*
D03*
M02*
