M48
;Layer_Color=9474304
;FILE_FORMAT=4:4
METRIC,LZ
;TYPE=PLATED
T01F00S00C0.2540
T02F00S00C0.3048
T03F00S00C0.5080
T04F00S00C0.6000
T05F00S00C1.3000
%
T01
X0029972Y011303
X0050292Y0108712
T02
X0038608Y0093218
X0039497Y0096393
X0038989Y0112014
X0053848Y0099314
X0062738Y009525
X0062611Y0091694
X0072644Y009144
X0066548Y0098171
X0063119Y0104013
X0082296Y0101092
X0093218Y0096774
X0097028Y0102362
X0101219Y0092837
X0107188Y0110109
X0044577Y0121158
X0045593Y0124079
T03
X009525Y0108839
X0104521Y0104902
T04
X0031502Y0104013
X0034042Y0106553
X0031502Y0109093
T05
X0035933Y0117007
X0075565Y0115156
Y0105156
X0087565
Y0115156
X0099449Y0116626
Y0121626
X0035933Y0122007
M30
