G04*
G04 #@! TF.GenerationSoftware,Altium Limited,Altium Designer,25.2.1 (25)*
G04*
G04 Layer_Physical_Order=4*
G04 Layer_Color=16711680*
%FSLAX44Y44*%
%MOMM*%
G71*
G04*
G04 #@! TF.SameCoordinates,DD8B7BEB-8506-42D0-99FA-5800EA924771*
G04*
G04*
G04 #@! TF.FilePolarity,Positive*
G04*
G01*
G75*
%ADD12R,1.1000X1.1000*%
%ADD13C,1.1000*%
%ADD17C,0.2540*%
%ADD18C,1.2700*%
G04:AMPARAMS|DCode=19|XSize=1.95mm|YSize=1.95mm|CornerRadius=0.4875mm|HoleSize=0mm|Usage=FLASHONLY|Rotation=90.000|XOffset=0mm|YOffset=0mm|HoleType=Round|Shape=RoundedRectangle|*
%AMROUNDEDRECTD19*
21,1,1.9500,0.9750,0,0,90.0*
21,1,0.9750,1.9500,0,0,90.0*
1,1,0.9750,0.4875,0.4875*
1,1,0.9750,0.4875,-0.4875*
1,1,0.9750,-0.4875,-0.4875*
1,1,0.9750,-0.4875,0.4875*
%
%ADD19ROUNDEDRECTD19*%
%ADD20C,1.9500*%
%ADD21C,0.6096*%
%ADD22C,1.2700*%
%ADD23C,0.9144*%
%ADD24R,0.9000X1.0000*%
%ADD25R,2.0000X4.0000*%
%ADD26R,0.8500X1.0000*%
%ADD27R,1.5057X1.8582*%
%ADD28R,0.7425X1.5575*%
G04:AMPARAMS|DCode=29|XSize=1.5575mm|YSize=0.7425mm|CornerRadius=0.3712mm|HoleSize=0mm|Usage=FLASHONLY|Rotation=90.000|XOffset=0mm|YOffset=0mm|HoleType=Round|Shape=RoundedRectangle|*
%AMROUNDEDRECTD29*
21,1,1.5575,0.0000,0,0,90.0*
21,1,0.8150,0.7425,0,0,90.0*
1,1,0.7425,0.0000,0.4075*
1,1,0.7425,0.0000,-0.4075*
1,1,0.7425,0.0000,-0.4075*
1,1,0.7425,0.0000,0.4075*
%
%ADD29ROUNDEDRECTD29*%
%ADD30R,2.0800X3.8100*%
%ADD31R,11.4300X8.8900*%
%ADD32R,0.9621X0.9581*%
%ADD33R,1.5082X1.1587*%
%ADD34R,1.2000X2.7000*%
%ADD35R,1.0637X1.0621*%
%ADD36R,0.9000X1.2000*%
%ADD37R,1.0000X2.6000*%
%ADD38R,1.0500X1.4000*%
%ADD39R,1.5200X0.6000*%
G04:AMPARAMS|DCode=40|XSize=0.65mm|YSize=1.2mm|CornerRadius=0.0488mm|HoleSize=0mm|Usage=FLASHONLY|Rotation=90.000|XOffset=0mm|YOffset=0mm|HoleType=Round|Shape=RoundedRectangle|*
%AMROUNDEDRECTD40*
21,1,0.6500,1.1025,0,0,90.0*
21,1,0.5525,1.2000,0,0,90.0*
1,1,0.0975,0.5513,0.2763*
1,1,0.0975,0.5513,-0.2763*
1,1,0.0975,-0.5513,-0.2763*
1,1,0.0975,-0.5513,0.2763*
%
%ADD40ROUNDEDRECTD40*%
%ADD41C,0.3048*%
D12*
X315020Y1040130D02*
D03*
D13*
X340420Y1065530D02*
D03*
X315020Y1090930D02*
D03*
D17*
X584860Y1023620D02*
X587400Y1026160D01*
X557530Y1023620D02*
X584860D01*
X551180Y1017270D02*
X557530Y1023620D01*
X551180Y919698D02*
Y1017270D01*
Y919698D02*
X552668Y918210D01*
X601050D01*
X606480Y923640D01*
X607980D01*
X611210Y926870D01*
Y928370D01*
X818018Y964060D02*
X890270D01*
X767088Y913130D02*
X818018Y964060D01*
X767080Y913130D02*
X767088D01*
X890270Y964060D02*
Y999490D01*
X831202Y925215D02*
X862604D01*
X866667Y921151D01*
X877184D01*
X819117Y913130D02*
X831202Y925215D01*
X877184Y921151D02*
X883442Y914892D01*
X850900Y890488D02*
X852388Y889000D01*
X850900Y890488D02*
Y910113D01*
X852388Y889000D02*
X959600D01*
X979170Y908570D01*
X890270Y999490D02*
X952500Y1061720D01*
X970820D01*
X975420D01*
X890270Y939800D02*
Y964060D01*
X920750Y909320D02*
X965670D01*
X890270Y939800D02*
X920750Y909320D01*
X446150Y1120140D02*
Y1120640D01*
X456700Y1131190D01*
Y1145540D01*
X429260Y1172980D02*
X456700Y1145540D01*
X429260Y1172980D02*
Y1173480D01*
X606400Y1026160D02*
Y1027910D01*
X610380Y1031890D01*
X612130D01*
X620370Y1040130D01*
X631190D01*
X970280Y1023620D02*
X970820Y1024160D01*
Y1049020D01*
X588480Y974610D02*
X595524Y967566D01*
X942340Y1005840D02*
X980440D01*
X916940Y980440D02*
X942340Y1005840D01*
X980440D02*
X994410Y1019810D01*
X916940Y940018D02*
Y980440D01*
X595524Y967566D02*
X649725D01*
X601980Y975360D02*
Y976110D01*
X604960Y979090D01*
X661898D01*
X664518Y981710D01*
X665480D01*
X606400Y995779D02*
Y1026160D01*
X594936Y969203D02*
Y984315D01*
X606400Y995779D01*
X649725Y967566D02*
X660634Y956657D01*
X654840Y939800D02*
X660634Y945594D01*
Y956657D01*
X1071880Y1078230D02*
Y1101090D01*
Y1078230D02*
X1072098Y1078012D01*
Y1075908D02*
Y1078012D01*
X1070610Y1074420D02*
X1072098Y1075908D01*
X1025620Y1074420D02*
X1070610D01*
X293370Y904240D02*
Y1094740D01*
X326564Y1127934D01*
X293370Y904240D02*
X307340Y890270D01*
X626110Y916940D02*
X636270Y927100D01*
X650240D01*
X608838Y905702D02*
X618032Y914896D01*
Y920048D01*
X608838Y900550D02*
Y905702D01*
X612260Y897128D02*
X618417D01*
X608838Y900550D02*
X612260Y897128D01*
X618417D02*
X642595Y921306D01*
X658997D01*
X611210Y926870D02*
X618032Y920048D01*
X590210Y928370D02*
X598520D01*
X630696Y937164D02*
X633854Y934006D01*
X602036Y931886D02*
Y933648D01*
X605553Y937164D02*
X630696D01*
X598520Y928370D02*
X602036Y931886D01*
Y933648D02*
X605553Y937164D01*
X658997Y934006D02*
X677491Y952500D01*
X653520Y993670D02*
Y1016000D01*
Y993670D02*
X665480Y981710D01*
X633854Y934006D02*
X658997D01*
X627380Y952500D02*
X650240D01*
X658997Y921306D02*
X683285Y945594D01*
X713797D01*
X677491Y952500D02*
X700440D01*
X682520Y987095D02*
Y1016000D01*
Y987095D02*
X698710Y970905D01*
Y954230D02*
Y970905D01*
Y954230D02*
X700440Y952500D01*
X705040D01*
X713797Y945594D02*
X715434Y943957D01*
Y932894D02*
Y943957D01*
X709640Y927100D02*
X715434Y932894D01*
X705040Y927100D02*
X709640D01*
X307340Y890270D02*
X621510D01*
X645640Y914400D02*
X650240D01*
X666750D01*
X621510Y890270D02*
X645640Y914400D01*
X666750D02*
X692150Y939800D01*
X438856Y1127934D02*
X446150Y1120640D01*
X326564Y1127934D02*
X438856D01*
X692150Y939800D02*
X705040D01*
X783668Y913130D02*
X819117D01*
X883442D02*
Y914892D01*
X930424Y926534D02*
X962706D01*
X916940Y940018D02*
X930424Y926534D01*
X850900Y910113D02*
X853917Y913130D01*
X979170Y908570D02*
Y909320D01*
Y910070D01*
X962706Y926534D02*
X979170Y910070D01*
X994410Y1019810D02*
Y1047810D01*
X1021020Y1074420D01*
X1025620D01*
X975420Y1061720D02*
X1000820Y1087120D01*
X1025620D01*
X979470Y958240D02*
Y977240D01*
X1001085Y996105D02*
X1057485D01*
X982220Y977240D02*
X1001085Y996105D01*
X979470Y977240D02*
X982220D01*
X1057485Y996105D02*
X1062990Y1001610D01*
X1025620Y1061720D02*
X1061502D01*
X1062990Y1060232D01*
Y1001610D02*
Y1060232D01*
X1038390Y977010D02*
X1057485Y996105D01*
X1038390Y969010D02*
Y977010D01*
X394970Y963930D02*
Y985306D01*
X455930Y1240790D02*
X470676Y1226044D01*
X501650D01*
X445770Y1173990D02*
Y1211580D01*
X445260Y1173480D02*
X445770Y1173990D01*
X1012190Y928370D02*
Y968210D01*
X1011390Y969010D02*
X1012190Y968210D01*
X705040Y914400D02*
X726440D01*
X932180Y967740D02*
X953470D01*
X1025620Y1049020D02*
X1045210D01*
X952500Y1088390D02*
X953135Y1087755D01*
X970185D01*
X970820Y1087120D01*
D18*
X365790Y1074420D02*
X400050D01*
X349280Y1090930D02*
X365790Y1074420D01*
X315020Y1090930D02*
X349280D01*
X485140Y1003240D02*
Y1013240D01*
X409420Y1088960D02*
X485140Y1013240D01*
X400050Y1088960D02*
X409420D01*
X315020Y1040130D02*
X360045D01*
X394335Y1005840D01*
X394970D01*
X822960Y1010920D02*
X835010D01*
X875650Y1051560D01*
X485140Y1003240D02*
X528380D01*
X538480Y993140D01*
X386080Y932180D02*
X386140Y932240D01*
X485140D01*
X501650Y1192036D02*
X502850D01*
X512234Y1201420D01*
X622300D01*
X635000Y1188720D01*
X746760D01*
X755120Y1180360D01*
Y1152090D02*
Y1180360D01*
Y1152090D02*
X755650Y1151560D01*
Y1051560D02*
Y1151560D01*
X875650Y1051560D02*
Y1151560D01*
X877490D01*
X892190Y1166260D01*
X994490D01*
X502920Y1087120D02*
X596900D01*
X299720Y1130300D02*
Y1162630D01*
X307160Y1170070D02*
X359330D01*
X299720Y1162630D02*
X307160Y1170070D01*
D19*
X994490Y1166260D02*
D03*
X359330Y1220070D02*
D03*
X755650Y1051560D02*
D03*
D20*
X994490Y1216260D02*
D03*
X359330Y1170070D02*
D03*
X755650Y1151560D02*
D03*
X875650Y1051560D02*
D03*
Y1151560D02*
D03*
D21*
X631190Y1040130D02*
D03*
X970280Y1023620D02*
D03*
X822960Y1010920D02*
D03*
X538480Y993140D02*
D03*
X1071880Y1101090D02*
D03*
X626110Y916940D02*
D03*
X665480Y981710D02*
D03*
X627380Y952500D02*
D03*
X394970Y963930D02*
D03*
X455930Y1240790D02*
D03*
X445770Y1211580D02*
D03*
X389890Y1120140D02*
D03*
X1012190Y928370D02*
D03*
X726440Y914400D02*
D03*
X932180Y967740D02*
D03*
D22*
X386080Y932180D02*
D03*
X502920Y1087120D02*
D03*
X299720Y1130300D02*
D03*
D23*
X1045210Y1049020D02*
D03*
X952500Y1088390D02*
D03*
D24*
X445260Y1173480D02*
D03*
X446150Y1120140D02*
D03*
X430150D02*
D03*
X429260Y1173480D02*
D03*
D25*
X485140Y932240D02*
D03*
Y1003240D02*
D03*
D26*
X601980Y975360D02*
D03*
X588480D02*
D03*
X965670Y909320D02*
D03*
X979170D02*
D03*
D27*
X853917Y913130D02*
D03*
X883442D02*
D03*
D28*
X501650Y1192036D02*
D03*
D29*
Y1226044D02*
D03*
D30*
X647700Y1087120D02*
D03*
X596900D02*
D03*
D31*
X622300Y1201420D02*
D03*
D32*
X400050Y1074420D02*
D03*
Y1088960D02*
D03*
D33*
X394970Y985306D02*
D03*
Y1005840D02*
D03*
D34*
X653520Y1016000D02*
D03*
X682520D02*
D03*
D35*
X783668Y913130D02*
D03*
X767080D02*
D03*
D36*
X611210Y928370D02*
D03*
X590210D02*
D03*
D37*
X1011390Y969010D02*
D03*
X1038390D02*
D03*
D38*
X606400Y1026160D02*
D03*
X587400D02*
D03*
D39*
X705040Y952500D02*
D03*
Y939800D02*
D03*
Y927100D02*
D03*
Y914400D02*
D03*
X650240Y952500D02*
D03*
Y939800D02*
D03*
Y927100D02*
D03*
Y914400D02*
D03*
X1025620Y1087120D02*
D03*
Y1074420D02*
D03*
Y1061720D02*
D03*
Y1049020D02*
D03*
X970820Y1087120D02*
D03*
Y1074420D02*
D03*
Y1061720D02*
D03*
Y1049020D02*
D03*
D40*
X979470Y977240D02*
D03*
Y958240D02*
D03*
X953470Y967740D02*
D03*
D41*
X916609Y1074420D02*
X970820D01*
X843711Y1001522D02*
X916609Y1074420D01*
X743458Y1001522D02*
X843711D01*
X675386Y1069594D02*
X743458Y1001522D01*
X656576Y1069594D02*
X675386D01*
X647700Y1078470D02*
X656576Y1069594D01*
X647700Y1078470D02*
Y1087120D01*
X389890Y1120140D02*
X430150D01*
M02*
