G04*
G04 #@! TF.GenerationSoftware,Altium Limited,Altium Designer,25.2.1 (25)*
G04*
G04 Layer_Color=16711935*
%FSLAX44Y44*%
%MOMM*%
G71*
G04*
G04 #@! TF.SameCoordinates,DD8B7BEB-8506-42D0-99FA-5800EA924771*
G04*
G04*
G04 #@! TF.FilePolarity,Negative*
G04*
G01*
G75*
G04:AMPARAMS|DCode=10|XSize=2.1532mm|YSize=2.1532mm|CornerRadius=0.5891mm|HoleSize=0mm|Usage=FLASHONLY|Rotation=90.000|XOffset=0mm|YOffset=0mm|HoleType=Round|Shape=RoundedRectangle|*
%AMROUNDEDRECTD10*
21,1,2.1532,0.9750,0,0,90.0*
21,1,0.9750,2.1532,0,0,90.0*
1,1,1.1782,0.4875,0.4875*
1,1,1.1782,0.4875,-0.4875*
1,1,1.1782,-0.4875,-0.4875*
1,1,1.1782,-0.4875,0.4875*
%
%ADD10ROUNDEDRECTD10*%
%ADD11C,2.1532*%
%ADD12R,1.1000X1.1000*%
%ADD13C,1.1000*%
%ADD14C,0.8128*%
%ADD15C,1.4732*%
%ADD16C,1.1176*%
%ADD25R,2.0000X4.0000*%
%ADD27R,1.5057X1.8582*%
%ADD28R,0.7425X1.5575*%
G04:AMPARAMS|DCode=29|XSize=1.5575mm|YSize=0.7425mm|CornerRadius=0.3712mm|HoleSize=0mm|Usage=FLASHONLY|Rotation=90.000|XOffset=0mm|YOffset=0mm|HoleType=Round|Shape=RoundedRectangle|*
%AMROUNDEDRECTD29*
21,1,1.5575,0.0000,0,0,90.0*
21,1,0.8150,0.7425,0,0,90.0*
1,1,0.7425,0.0000,0.4075*
1,1,0.7425,0.0000,-0.4075*
1,1,0.7425,0.0000,-0.4075*
1,1,0.7425,0.0000,0.4075*
%
%ADD29ROUNDEDRECTD29*%
%ADD30R,2.0800X3.8100*%
%ADD31R,11.4300X8.8900*%
%ADD32R,0.9621X0.9581*%
%ADD33R,1.5082X1.1587*%
%ADD35R,1.0637X1.0621*%
%ADD36R,0.9000X1.2000*%
%ADD42R,1.1032X1.2032*%
%ADD43R,1.0532X1.2032*%
%ADD44R,1.4032X2.9032*%
%ADD45R,1.2032X2.8032*%
%ADD46R,1.2532X1.6032*%
%ADD47R,1.7232X0.8032*%
G04:AMPARAMS|DCode=48|XSize=0.8532mm|YSize=1.4032mm|CornerRadius=0.1504mm|HoleSize=0mm|Usage=FLASHONLY|Rotation=90.000|XOffset=0mm|YOffset=0mm|HoleType=Round|Shape=RoundedRectangle|*
%AMROUNDEDRECTD48*
21,1,0.8532,1.1025,0,0,90.0*
21,1,0.5525,1.4032,0,0,90.0*
1,1,0.3007,0.5513,0.2763*
1,1,0.3007,0.5513,-0.2763*
1,1,0.3007,-0.5513,-0.2763*
1,1,0.3007,-0.5513,0.2763*
%
%ADD48ROUNDEDRECTD48*%
D10*
X994490Y1166260D02*
D03*
X359330Y1220070D02*
D03*
X755650Y1051560D02*
D03*
D11*
X994490Y1216260D02*
D03*
X359330Y1170070D02*
D03*
X755650Y1151560D02*
D03*
X875650Y1051560D02*
D03*
Y1151560D02*
D03*
D12*
X315020Y1040130D02*
D03*
D13*
X340420Y1065530D02*
D03*
X315020Y1090930D02*
D03*
D14*
X631190Y1040130D02*
D03*
X970280Y1023620D02*
D03*
X822960Y1010920D02*
D03*
X538480Y993140D02*
D03*
X1071880Y1101090D02*
D03*
X626110Y916940D02*
D03*
X665480Y981710D02*
D03*
X627380Y952500D02*
D03*
X394970Y963930D02*
D03*
X455930Y1240790D02*
D03*
X445770Y1211580D02*
D03*
X389890Y1120140D02*
D03*
X1012190Y928370D02*
D03*
X726440Y914400D02*
D03*
X932180Y967740D02*
D03*
D15*
X386080Y932180D02*
D03*
X502920Y1087120D02*
D03*
X299720Y1130300D02*
D03*
D16*
X1045210Y1049020D02*
D03*
X952500Y1088390D02*
D03*
D25*
X485140Y932240D02*
D03*
Y1003240D02*
D03*
D27*
X853917Y913130D02*
D03*
X883442D02*
D03*
D28*
X501650Y1192036D02*
D03*
D29*
Y1226044D02*
D03*
D30*
X647700Y1087120D02*
D03*
X596900D02*
D03*
D31*
X622300Y1201420D02*
D03*
D32*
X400050Y1074420D02*
D03*
Y1088960D02*
D03*
D33*
X394970Y985306D02*
D03*
Y1005840D02*
D03*
D35*
X783668Y913130D02*
D03*
X767080D02*
D03*
D36*
X611210Y928370D02*
D03*
X590210D02*
D03*
D42*
X445260Y1173480D02*
D03*
X446150Y1120140D02*
D03*
X430150D02*
D03*
X429260Y1173480D02*
D03*
D43*
X601980Y975360D02*
D03*
X588480D02*
D03*
X965670Y909320D02*
D03*
X979170D02*
D03*
D44*
X653520Y1016000D02*
D03*
X682520D02*
D03*
D45*
X1011390Y969010D02*
D03*
X1038390D02*
D03*
D46*
X606400Y1026160D02*
D03*
X587400D02*
D03*
D47*
X705040Y952500D02*
D03*
Y939800D02*
D03*
Y927100D02*
D03*
Y914400D02*
D03*
X650240Y952500D02*
D03*
Y939800D02*
D03*
Y927100D02*
D03*
Y914400D02*
D03*
X1025620Y1087120D02*
D03*
Y1074420D02*
D03*
Y1061720D02*
D03*
Y1049020D02*
D03*
X970820Y1087120D02*
D03*
Y1074420D02*
D03*
Y1061720D02*
D03*
Y1049020D02*
D03*
D48*
X979470Y977240D02*
D03*
Y958240D02*
D03*
X953470Y967740D02*
D03*
M02*
