G04*
G04 #@! TF.GenerationSoftware,Altium Limited,Altium Designer,25.2.1 (25)*
G04*
G04 Layer_Physical_Order=2*
G04 Layer_Color=36540*
%FSLAX44Y44*%
%MOMM*%
G71*
G04*
G04 #@! TF.SameCoordinates,DD8B7BEB-8506-42D0-99FA-5800EA924771*
G04*
G04*
G04 #@! TF.FilePolarity,Positive*
G04*
G01*
G75*
%ADD12R,1.1000X1.1000*%
%ADD13C,1.1000*%
G04:AMPARAMS|DCode=19|XSize=1.95mm|YSize=1.95mm|CornerRadius=0.4875mm|HoleSize=0mm|Usage=FLASHONLY|Rotation=90.000|XOffset=0mm|YOffset=0mm|HoleType=Round|Shape=RoundedRectangle|*
%AMROUNDEDRECTD19*
21,1,1.9500,0.9750,0,0,90.0*
21,1,0.9750,1.9500,0,0,90.0*
1,1,0.9750,0.4875,0.4875*
1,1,0.9750,0.4875,-0.4875*
1,1,0.9750,-0.4875,-0.4875*
1,1,0.9750,-0.4875,0.4875*
%
%ADD19ROUNDEDRECTD19*%
%ADD20C,1.9500*%
%ADD21C,0.6096*%
%ADD22C,1.2700*%
%ADD23C,0.9144*%
G36*
X288268Y1267482D02*
X1074811D01*
X1076602Y1265681D01*
X1075745Y1107010D01*
X1073196Y1105493D01*
X1072789Y1105662D01*
X1070971D01*
X1069290Y1104966D01*
X1068004Y1103680D01*
X1067308Y1101999D01*
Y1100181D01*
X1068004Y1098500D01*
X1069290Y1097214D01*
X1070971Y1096518D01*
X1072789D01*
X1073149Y1096667D01*
X1075680Y1095106D01*
X1074454Y868194D01*
X1073895Y867965D01*
X285366D01*
Y1266792D01*
X287362Y1268388D01*
X288268Y1267482D01*
D02*
G37*
%LPC*%
G36*
X457200Y1246312D02*
Y1242060D01*
X461452D01*
X460667Y1243955D01*
X459095Y1245527D01*
X457200Y1246312D01*
D02*
G37*
G36*
X454660D02*
X452765Y1245527D01*
X451193Y1243955D01*
X450408Y1242060D01*
X454660D01*
Y1246312D01*
D02*
G37*
G36*
X461452Y1239520D02*
X457200D01*
Y1235268D01*
X459095Y1236053D01*
X460667Y1237625D01*
X461452Y1239520D01*
D02*
G37*
G36*
X454660D02*
X450408D01*
X451193Y1237625D01*
X452765Y1236053D01*
X454660Y1235268D01*
Y1239520D01*
D02*
G37*
G36*
X364205Y1232424D02*
X360600D01*
Y1221340D01*
X371684D01*
Y1224945D01*
X371429Y1226881D01*
X370682Y1228684D01*
X369493Y1230233D01*
X367944Y1231422D01*
X366141Y1232169D01*
X364205Y1232424D01*
D02*
G37*
G36*
X358060D02*
X354455D01*
X352519Y1232169D01*
X350715Y1231422D01*
X349167Y1230233D01*
X347978Y1228684D01*
X347231Y1226881D01*
X346976Y1224945D01*
Y1221340D01*
X358060D01*
Y1232424D01*
D02*
G37*
G36*
X996108Y1228550D02*
X995760D01*
Y1217530D01*
X1006780D01*
Y1217878D01*
X1005942Y1221004D01*
X1004324Y1223806D01*
X1002036Y1226094D01*
X999234Y1227712D01*
X996108Y1228550D01*
D02*
G37*
G36*
X993220D02*
X992872D01*
X989746Y1227712D01*
X986944Y1226094D01*
X984656Y1223806D01*
X983037Y1221004D01*
X982200Y1217878D01*
Y1217530D01*
X993220D01*
Y1228550D01*
D02*
G37*
G36*
X447040Y1217102D02*
Y1212850D01*
X451292D01*
X450507Y1214745D01*
X448935Y1216317D01*
X447040Y1217102D01*
D02*
G37*
G36*
X444500D02*
X442605Y1216317D01*
X441033Y1214745D01*
X440248Y1212850D01*
X444500D01*
Y1217102D01*
D02*
G37*
G36*
X371684Y1218800D02*
X360600D01*
Y1207716D01*
X364205D01*
X366141Y1207971D01*
X367944Y1208718D01*
X369493Y1209907D01*
X370682Y1211456D01*
X371429Y1213259D01*
X371684Y1215195D01*
Y1218800D01*
D02*
G37*
G36*
X358060D02*
X346976D01*
Y1215195D01*
X347231Y1213259D01*
X347978Y1211456D01*
X349167Y1209907D01*
X350715Y1208718D01*
X352519Y1207971D01*
X354455Y1207716D01*
X358060D01*
Y1218800D01*
D02*
G37*
G36*
X451292Y1210310D02*
X447040D01*
Y1206058D01*
X448935Y1206843D01*
X450507Y1208415D01*
X451292Y1210310D01*
D02*
G37*
G36*
X444500D02*
X440248D01*
X441033Y1208415D01*
X442605Y1206843D01*
X444500Y1206058D01*
Y1210310D01*
D02*
G37*
G36*
X1006780Y1214990D02*
X995760D01*
Y1203970D01*
X996108D01*
X999234Y1204808D01*
X1002036Y1206426D01*
X1004324Y1208714D01*
X1005942Y1211516D01*
X1006780Y1214642D01*
Y1214990D01*
D02*
G37*
G36*
X993220D02*
X982200D01*
Y1214642D01*
X983037Y1211516D01*
X984656Y1208714D01*
X986944Y1206426D01*
X989746Y1204808D01*
X992872Y1203970D01*
X993220D01*
Y1214990D01*
D02*
G37*
G36*
X360814Y1181344D02*
X357846D01*
X354978Y1180576D01*
X352408Y1179091D01*
X350309Y1176992D01*
X348824Y1174422D01*
X348056Y1171554D01*
Y1168586D01*
X348824Y1165718D01*
X350309Y1163148D01*
X352408Y1161049D01*
X354978Y1159564D01*
X357846Y1158796D01*
X360814D01*
X363682Y1159564D01*
X366252Y1161049D01*
X368352Y1163148D01*
X369836Y1165718D01*
X370604Y1168586D01*
Y1171554D01*
X369836Y1174422D01*
X368352Y1176992D01*
X366252Y1179091D01*
X363682Y1180576D01*
X360814Y1181344D01*
D02*
G37*
G36*
X999365Y1177659D02*
X989615D01*
X987118Y1177163D01*
X985002Y1175748D01*
X983587Y1173632D01*
X983091Y1171135D01*
Y1161385D01*
X983587Y1158888D01*
X985002Y1156772D01*
X987118Y1155357D01*
X989615Y1154861D01*
X999365D01*
X1001862Y1155357D01*
X1003978Y1156772D01*
X1005393Y1158888D01*
X1005889Y1161385D01*
Y1171135D01*
X1005393Y1173632D01*
X1003978Y1175748D01*
X1001862Y1177163D01*
X999365Y1177659D01*
D02*
G37*
G36*
X877134Y1162834D02*
X874166D01*
X871298Y1162066D01*
X868728Y1160581D01*
X866628Y1158482D01*
X865144Y1155912D01*
X864376Y1153044D01*
Y1150076D01*
X865144Y1147208D01*
X866628Y1144638D01*
X868728Y1142539D01*
X871298Y1141054D01*
X874166Y1140286D01*
X877134D01*
X880002Y1141054D01*
X882572Y1142539D01*
X884671Y1144638D01*
X886156Y1147208D01*
X886924Y1150076D01*
Y1153044D01*
X886156Y1155912D01*
X884671Y1158482D01*
X882572Y1160581D01*
X880002Y1162066D01*
X877134Y1162834D01*
D02*
G37*
G36*
X757134D02*
X754166D01*
X751298Y1162066D01*
X748728Y1160581D01*
X746628Y1158482D01*
X745144Y1155912D01*
X744376Y1153044D01*
Y1150076D01*
X745144Y1147208D01*
X746628Y1144638D01*
X748728Y1142539D01*
X751298Y1141054D01*
X754166Y1140286D01*
X757134D01*
X760002Y1141054D01*
X762572Y1142539D01*
X764671Y1144638D01*
X766156Y1147208D01*
X766924Y1150076D01*
Y1153044D01*
X766156Y1155912D01*
X764671Y1158482D01*
X762572Y1160581D01*
X760002Y1162066D01*
X757134Y1162834D01*
D02*
G37*
G36*
X300757Y1138174D02*
X298683D01*
X296681Y1137637D01*
X294885Y1136601D01*
X293419Y1135135D01*
X292383Y1133339D01*
X291846Y1131337D01*
Y1129263D01*
X292383Y1127261D01*
X293419Y1125465D01*
X294885Y1123999D01*
X296681Y1122963D01*
X298683Y1122426D01*
X300757D01*
X302759Y1122963D01*
X304555Y1123999D01*
X306021Y1125465D01*
X307057Y1127261D01*
X307594Y1129263D01*
Y1131337D01*
X307057Y1133339D01*
X306021Y1135135D01*
X304555Y1136601D01*
X302759Y1137637D01*
X300757Y1138174D01*
D02*
G37*
G36*
X390799Y1124712D02*
X388981D01*
X387300Y1124016D01*
X386014Y1122730D01*
X385318Y1121049D01*
Y1119231D01*
X386014Y1117550D01*
X387300Y1116264D01*
X388981Y1115568D01*
X390799D01*
X392480Y1116264D01*
X393766Y1117550D01*
X394462Y1119231D01*
Y1121049D01*
X393766Y1122730D01*
X392480Y1124016D01*
X390799Y1124712D01*
D02*
G37*
G36*
X315945Y1097954D02*
X314095D01*
X312309Y1097475D01*
X310707Y1096551D01*
X309399Y1095243D01*
X308475Y1093641D01*
X307996Y1091855D01*
Y1090005D01*
X308475Y1088219D01*
X309399Y1086617D01*
X310707Y1085309D01*
X312309Y1084385D01*
X314095Y1083906D01*
X315945D01*
X317731Y1084385D01*
X319333Y1085309D01*
X320641Y1086617D01*
X321565Y1088219D01*
X322044Y1090005D01*
Y1091855D01*
X321565Y1093641D01*
X320641Y1095243D01*
X319333Y1096551D01*
X317731Y1097475D01*
X315945Y1097954D01*
D02*
G37*
G36*
X953713Y1094486D02*
X951287D01*
X949047Y1093558D01*
X947332Y1091843D01*
X946404Y1089603D01*
Y1087177D01*
X947332Y1084937D01*
X949047Y1083222D01*
X951287Y1082294D01*
X953713D01*
X955953Y1083222D01*
X957668Y1084937D01*
X958596Y1087177D01*
Y1089603D01*
X957668Y1091843D01*
X955953Y1093558D01*
X953713Y1094486D01*
D02*
G37*
G36*
X503957Y1094994D02*
X501883D01*
X499881Y1094457D01*
X498085Y1093421D01*
X496619Y1091955D01*
X495583Y1090159D01*
X495046Y1088157D01*
Y1086083D01*
X495583Y1084081D01*
X496619Y1082285D01*
X498085Y1080819D01*
X499881Y1079783D01*
X501883Y1079246D01*
X503957D01*
X505959Y1079783D01*
X507755Y1080819D01*
X509221Y1082285D01*
X510257Y1084081D01*
X510794Y1086083D01*
Y1088157D01*
X510257Y1090159D01*
X509221Y1091955D01*
X507755Y1093421D01*
X505959Y1094457D01*
X503957Y1094994D01*
D02*
G37*
G36*
X341345Y1072554D02*
X339495D01*
X337709Y1072075D01*
X336107Y1071151D01*
X334799Y1069843D01*
X333875Y1068241D01*
X333396Y1066455D01*
Y1064605D01*
X333875Y1062819D01*
X334799Y1061217D01*
X336107Y1059909D01*
X337709Y1058985D01*
X339495Y1058506D01*
X341345D01*
X343131Y1058985D01*
X344733Y1059909D01*
X346041Y1061217D01*
X346965Y1062819D01*
X347444Y1064605D01*
Y1066455D01*
X346965Y1068241D01*
X346041Y1069843D01*
X344733Y1071151D01*
X343131Y1072075D01*
X341345Y1072554D01*
D02*
G37*
G36*
X1046480Y1056043D02*
Y1050290D01*
X1052233D01*
X1051837Y1051765D01*
X1050901Y1053387D01*
X1049577Y1054711D01*
X1047955Y1055647D01*
X1046480Y1056043D01*
D02*
G37*
G36*
X1043940D02*
X1042465Y1055647D01*
X1040843Y1054711D01*
X1039519Y1053387D01*
X1038583Y1051765D01*
X1038187Y1050290D01*
X1043940D01*
Y1056043D01*
D02*
G37*
G36*
X1052233Y1047750D02*
X1046480D01*
Y1041997D01*
X1047955Y1042393D01*
X1049577Y1043329D01*
X1050901Y1044653D01*
X1051837Y1046275D01*
X1052233Y1047750D01*
D02*
G37*
G36*
X1043940D02*
X1038187D01*
X1038583Y1046275D01*
X1039519Y1044653D01*
X1040843Y1043329D01*
X1042465Y1042393D01*
X1043940Y1041997D01*
Y1047750D01*
D02*
G37*
G36*
X877134Y1062834D02*
X874166D01*
X871298Y1062066D01*
X868728Y1060581D01*
X866628Y1058482D01*
X865144Y1055912D01*
X864376Y1053044D01*
Y1050076D01*
X865144Y1047208D01*
X866628Y1044638D01*
X868728Y1042539D01*
X871298Y1041054D01*
X874166Y1040286D01*
X877134D01*
X880002Y1041054D01*
X882572Y1042539D01*
X884671Y1044638D01*
X886156Y1047208D01*
X886924Y1050076D01*
Y1053044D01*
X886156Y1055912D01*
X884671Y1058482D01*
X882572Y1060581D01*
X880002Y1062066D01*
X877134Y1062834D01*
D02*
G37*
G36*
X760525Y1062959D02*
X750775D01*
X748278Y1062463D01*
X746161Y1061048D01*
X744747Y1058932D01*
X744251Y1056435D01*
Y1046685D01*
X744747Y1044188D01*
X746161Y1042072D01*
X748278Y1040657D01*
X750775Y1040161D01*
X760525D01*
X763022Y1040657D01*
X765138Y1042072D01*
X766553Y1044188D01*
X767049Y1046685D01*
Y1056435D01*
X766553Y1058932D01*
X765138Y1061048D01*
X763022Y1062463D01*
X760525Y1062959D01*
D02*
G37*
G36*
X632099Y1044702D02*
X630281D01*
X628600Y1044006D01*
X627314Y1042720D01*
X626618Y1041039D01*
Y1039221D01*
X627314Y1037540D01*
X628600Y1036254D01*
X630281Y1035558D01*
X632099D01*
X633780Y1036254D01*
X635066Y1037540D01*
X635762Y1039221D01*
Y1041039D01*
X635066Y1042720D01*
X633780Y1044006D01*
X632099Y1044702D01*
D02*
G37*
G36*
X322044Y1047154D02*
X307996D01*
Y1033106D01*
X322044D01*
Y1047154D01*
D02*
G37*
G36*
X971189Y1028192D02*
X969371D01*
X967690Y1027496D01*
X966404Y1026210D01*
X965708Y1024529D01*
Y1022711D01*
X966404Y1021030D01*
X967690Y1019744D01*
X969371Y1019048D01*
X971189D01*
X972870Y1019744D01*
X974156Y1021030D01*
X974852Y1022711D01*
Y1024529D01*
X974156Y1026210D01*
X972870Y1027496D01*
X971189Y1028192D01*
D02*
G37*
G36*
X823869Y1015492D02*
X822051D01*
X820370Y1014796D01*
X819084Y1013510D01*
X818388Y1011829D01*
Y1010011D01*
X819084Y1008330D01*
X820370Y1007044D01*
X822051Y1006348D01*
X823869D01*
X825550Y1007044D01*
X826836Y1008330D01*
X827532Y1010011D01*
Y1011829D01*
X826836Y1013510D01*
X825550Y1014796D01*
X823869Y1015492D01*
D02*
G37*
G36*
X539389Y997712D02*
X537571D01*
X535890Y997016D01*
X534604Y995730D01*
X533908Y994049D01*
Y992231D01*
X534604Y990550D01*
X535890Y989264D01*
X537571Y988568D01*
X539389D01*
X541070Y989264D01*
X542356Y990550D01*
X543052Y992231D01*
Y994049D01*
X542356Y995730D01*
X541070Y997016D01*
X539389Y997712D01*
D02*
G37*
G36*
X666389Y986282D02*
X664571D01*
X662890Y985586D01*
X661604Y984300D01*
X660908Y982619D01*
Y980801D01*
X661604Y979120D01*
X662890Y977834D01*
X664571Y977138D01*
X666389D01*
X668070Y977834D01*
X669356Y979120D01*
X670052Y980801D01*
Y982619D01*
X669356Y984300D01*
X668070Y985586D01*
X666389Y986282D01*
D02*
G37*
G36*
X933450Y973262D02*
Y969010D01*
X937702D01*
X936917Y970905D01*
X935345Y972477D01*
X933450Y973262D01*
D02*
G37*
G36*
X930910D02*
X929015Y972477D01*
X927443Y970905D01*
X926658Y969010D01*
X930910D01*
Y973262D01*
D02*
G37*
G36*
X396240Y969452D02*
Y965200D01*
X400492D01*
X399707Y967095D01*
X398135Y968667D01*
X396240Y969452D01*
D02*
G37*
G36*
X393700D02*
X391805Y968667D01*
X390233Y967095D01*
X389448Y965200D01*
X393700D01*
Y969452D01*
D02*
G37*
G36*
X937702Y966470D02*
X933450D01*
Y962218D01*
X935345Y963003D01*
X936917Y964575D01*
X937702Y966470D01*
D02*
G37*
G36*
X930910D02*
X926658D01*
X927443Y964575D01*
X929015Y963003D01*
X930910Y962218D01*
Y966470D01*
D02*
G37*
G36*
X400492Y962660D02*
X396240D01*
Y958408D01*
X398135Y959193D01*
X399707Y960765D01*
X400492Y962660D01*
D02*
G37*
G36*
X393700D02*
X389448D01*
X390233Y960765D01*
X391805Y959193D01*
X393700Y958408D01*
Y962660D01*
D02*
G37*
G36*
X628289Y957072D02*
X626471D01*
X624790Y956376D01*
X623504Y955090D01*
X622808Y953409D01*
Y951591D01*
X623504Y949910D01*
X624790Y948624D01*
X626471Y947928D01*
X628289D01*
X629970Y948624D01*
X631256Y949910D01*
X631952Y951591D01*
Y953409D01*
X631256Y955090D01*
X629970Y956376D01*
X628289Y957072D01*
D02*
G37*
G36*
X387350Y941043D02*
Y933450D01*
X394943D01*
X394364Y935611D01*
X393194Y937639D01*
X391539Y939294D01*
X389511Y940464D01*
X387350Y941043D01*
D02*
G37*
G36*
X384810D02*
X382649Y940464D01*
X380621Y939294D01*
X378966Y937639D01*
X377796Y935611D01*
X377217Y933450D01*
X384810D01*
Y941043D01*
D02*
G37*
G36*
X1013099Y932942D02*
X1011281D01*
X1009600Y932246D01*
X1008314Y930960D01*
X1007618Y929279D01*
Y927461D01*
X1008314Y925780D01*
X1009600Y924494D01*
X1011281Y923798D01*
X1013099D01*
X1014780Y924494D01*
X1016066Y925780D01*
X1016762Y927461D01*
Y929279D01*
X1016066Y930960D01*
X1014780Y932246D01*
X1013099Y932942D01*
D02*
G37*
G36*
X394943Y930910D02*
X387350D01*
Y923317D01*
X389511Y923896D01*
X391539Y925066D01*
X393194Y926721D01*
X394364Y928749D01*
X394943Y930910D01*
D02*
G37*
G36*
X384810D02*
X377217D01*
X377796Y928749D01*
X378966Y926721D01*
X380621Y925066D01*
X382649Y923896D01*
X384810Y923317D01*
Y930910D01*
D02*
G37*
G36*
X727710Y919922D02*
Y915670D01*
X731962D01*
X731177Y917565D01*
X729605Y919137D01*
X727710Y919922D01*
D02*
G37*
G36*
X725170D02*
X723275Y919137D01*
X721703Y917565D01*
X720918Y915670D01*
X725170D01*
Y919922D01*
D02*
G37*
G36*
X627019Y921512D02*
X625201D01*
X623520Y920816D01*
X622234Y919530D01*
X621538Y917849D01*
Y916031D01*
X622234Y914350D01*
X623520Y913064D01*
X625201Y912368D01*
X627019D01*
X628700Y913064D01*
X629986Y914350D01*
X630682Y916031D01*
Y917849D01*
X629986Y919530D01*
X628700Y920816D01*
X627019Y921512D01*
D02*
G37*
G36*
X731962Y913130D02*
X727710D01*
Y908878D01*
X729605Y909663D01*
X731177Y911235D01*
X731962Y913130D01*
D02*
G37*
G36*
X725170D02*
X720918D01*
X721703Y911235D01*
X723275Y909663D01*
X725170Y908878D01*
Y913130D01*
D02*
G37*
%LPD*%
D12*
X315020Y1040130D02*
D03*
D13*
X340420Y1065530D02*
D03*
X315020Y1090930D02*
D03*
D19*
X994490Y1166260D02*
D03*
X359330Y1220070D02*
D03*
X755650Y1051560D02*
D03*
D20*
X994490Y1216260D02*
D03*
X359330Y1170070D02*
D03*
X755650Y1151560D02*
D03*
X875650Y1051560D02*
D03*
Y1151560D02*
D03*
D21*
X631190Y1040130D02*
D03*
X970280Y1023620D02*
D03*
X822960Y1010920D02*
D03*
X538480Y993140D02*
D03*
X1071880Y1101090D02*
D03*
X626110Y916940D02*
D03*
X665480Y981710D02*
D03*
X627380Y952500D02*
D03*
X394970Y963930D02*
D03*
X455930Y1240790D02*
D03*
X445770Y1211580D02*
D03*
X389890Y1120140D02*
D03*
X1012190Y928370D02*
D03*
X726440Y914400D02*
D03*
X932180Y967740D02*
D03*
D22*
X386080Y932180D02*
D03*
X502920Y1087120D02*
D03*
X299720Y1130300D02*
D03*
D23*
X1045210Y1049020D02*
D03*
X952500Y1088390D02*
D03*
M02*
