G04*
G04 #@! TF.GenerationSoftware,Altium Limited,Altium Designer,25.2.1 (25)*
G04*
G04 Layer_Physical_Order=1*
G04 Layer_Color=255*
%FSLAX44Y44*%
%MOMM*%
G71*
G04*
G04 #@! TF.SameCoordinates,DD8B7BEB-8506-42D0-99FA-5800EA924771*
G04*
G04*
G04 #@! TF.FilePolarity,Positive*
G04*
G01*
G75*
%ADD12R,1.1000X1.1000*%
%ADD13C,1.1000*%
%ADD17C,0.2540*%
%ADD18C,1.2700*%
G04:AMPARAMS|DCode=19|XSize=1.95mm|YSize=1.95mm|CornerRadius=0.4875mm|HoleSize=0mm|Usage=FLASHONLY|Rotation=90.000|XOffset=0mm|YOffset=0mm|HoleType=Round|Shape=RoundedRectangle|*
%AMROUNDEDRECTD19*
21,1,1.9500,0.9750,0,0,90.0*
21,1,0.9750,1.9500,0,0,90.0*
1,1,0.9750,0.4875,0.4875*
1,1,0.9750,0.4875,-0.4875*
1,1,0.9750,-0.4875,-0.4875*
1,1,0.9750,-0.4875,0.4875*
%
%ADD19ROUNDEDRECTD19*%
%ADD20C,1.9500*%
%ADD21C,0.6096*%
%ADD22C,1.2700*%
%ADD23C,0.9144*%
D12*
X315020Y1040130D02*
D03*
D13*
X340420Y1065530D02*
D03*
X315020Y1090930D02*
D03*
D17*
X631190Y1040130D02*
X647700Y1023620D01*
X970280D01*
X340420Y1065530D02*
Y1094522D01*
X341908Y1096010D01*
X388620D01*
X412750Y1120140D01*
X1052830D01*
X1071880Y1101090D01*
X626110Y916940D02*
X644865Y935695D01*
X647405D02*
X665480Y953770D01*
X644865Y935695D02*
X647405D01*
X665480Y953770D02*
Y981710D01*
D18*
X556260Y1010920D02*
X822960D01*
X538480Y993140D02*
X556260Y1010920D01*
D19*
X994490Y1166260D02*
D03*
X359330Y1220070D02*
D03*
X755650Y1051560D02*
D03*
D20*
X994490Y1216260D02*
D03*
X359330Y1170070D02*
D03*
X755650Y1151560D02*
D03*
X875650Y1051560D02*
D03*
Y1151560D02*
D03*
D21*
X631190Y1040130D02*
D03*
X970280Y1023620D02*
D03*
X822960Y1010920D02*
D03*
X538480Y993140D02*
D03*
X1071880Y1101090D02*
D03*
X626110Y916940D02*
D03*
X665480Y981710D02*
D03*
X627380Y952500D02*
D03*
X394970Y963930D02*
D03*
X455930Y1240790D02*
D03*
X445770Y1211580D02*
D03*
X389890Y1120140D02*
D03*
X1012190Y928370D02*
D03*
X726440Y914400D02*
D03*
X932180Y967740D02*
D03*
D22*
X386080Y932180D02*
D03*
X502920Y1087120D02*
D03*
X299720Y1130300D02*
D03*
D23*
X1045210Y1049020D02*
D03*
X952500Y1088390D02*
D03*
M02*
