G04*
G04 #@! TF.GenerationSoftware,Altium Limited,Altium Designer,25.2.1 (25)*
G04*
G04 Layer_Color=32896*
%FSLAX44Y44*%
%MOMM*%
G71*
G04*
G04 #@! TF.SameCoordinates,DD8B7BEB-8506-42D0-99FA-5800EA924771*
G04*
G04*
G04 #@! TF.FilePolarity,Positive*
G04*
G01*
G75*
%ADD17C,0.2540*%
%ADD49C,0.2500*%
%ADD50C,0.6000*%
%ADD51C,0.2000*%
D17*
X987933Y1011296D02*
Y998600D01*
X985394Y996061D01*
X980315D01*
X977776Y998600D01*
Y1011296D01*
X972698Y1008757D02*
X970159Y1011296D01*
X965080D01*
X962541Y1008757D01*
Y1006218D01*
X965080Y1003679D01*
X967620D01*
X965080D01*
X962541Y1001139D01*
Y998600D01*
X965080Y996061D01*
X970159D01*
X972698Y998600D01*
X1031875Y1121024D02*
Y1108328D01*
X1029336Y1105789D01*
X1024258D01*
X1021718Y1108328D01*
Y1121024D01*
X1006483Y1105789D02*
X1016640D01*
X1006483Y1115946D01*
Y1118485D01*
X1009022Y1121024D01*
X1014101D01*
X1016640Y1118485D01*
X711295Y986404D02*
Y973708D01*
X708756Y971169D01*
X703678D01*
X701138Y973708D01*
Y986404D01*
X696060Y971169D02*
X690982D01*
X693521D01*
Y986404D01*
X696060Y983865D01*
X612013Y1043559D02*
Y1058794D01*
X604395D01*
X601856Y1056255D01*
Y1051177D01*
X604395Y1048637D01*
X612013D01*
X606935D02*
X601856Y1043559D01*
X596778D02*
X591700D01*
X594239D01*
Y1058794D01*
X596778Y1056255D01*
X584082D02*
X581543Y1058794D01*
X576465D01*
X573925Y1056255D01*
Y1046098D01*
X576465Y1043559D01*
X581543D01*
X584082Y1046098D01*
Y1056255D01*
X1042035Y991489D02*
Y1006724D01*
X1034417D01*
X1031878Y1004185D01*
Y999107D01*
X1034417Y996567D01*
X1042035D01*
X1036957D02*
X1031878Y991489D01*
X1026800Y994028D02*
X1024261Y991489D01*
X1019182D01*
X1016643Y994028D01*
Y1004185D01*
X1019182Y1006724D01*
X1024261D01*
X1026800Y1004185D01*
Y1001646D01*
X1024261Y999107D01*
X1016643D01*
X615061Y944753D02*
Y959988D01*
X607443D01*
X604904Y957449D01*
Y952371D01*
X607443Y949831D01*
X615061D01*
X609983D02*
X604904Y944753D01*
X599826Y957449D02*
X597287Y959988D01*
X592208D01*
X589669Y957449D01*
Y954910D01*
X592208Y952371D01*
X589669Y949831D01*
Y947292D01*
X592208Y944753D01*
X597287D01*
X599826Y947292D01*
Y949831D01*
X597287Y952371D01*
X599826Y954910D01*
Y957449D01*
X597287Y952371D02*
X592208D01*
X792519Y932053D02*
Y947288D01*
X784901D01*
X782362Y944749D01*
Y939670D01*
X784901Y937131D01*
X792519D01*
X787440D02*
X782362Y932053D01*
X777284Y947288D02*
X767127D01*
Y944749D01*
X777284Y934592D01*
Y932053D01*
X688721Y1039749D02*
Y1054984D01*
X681104D01*
X678564Y1052445D01*
Y1047366D01*
X681104Y1044827D01*
X688721D01*
X683643D02*
X678564Y1039749D01*
X663329Y1054984D02*
X668408Y1052445D01*
X673486Y1047366D01*
Y1042288D01*
X670947Y1039749D01*
X665868D01*
X663329Y1042288D01*
Y1044827D01*
X665868Y1047366D01*
X673486D01*
X416179Y976142D02*
X431414D01*
Y983760D01*
X428875Y986299D01*
X423797D01*
X421257Y983760D01*
Y976142D01*
Y981220D02*
X416179Y986299D01*
X431414Y1001534D02*
Y991377D01*
X423797D01*
X426336Y996455D01*
Y998995D01*
X423797Y1001534D01*
X418718D01*
X416179Y998995D01*
Y993916D01*
X418718Y991377D01*
X450087Y1188847D02*
Y1204082D01*
X442469D01*
X439930Y1201543D01*
Y1196464D01*
X442469Y1193925D01*
X450087D01*
X445009D02*
X439930Y1188847D01*
X427234D02*
Y1204082D01*
X434852Y1196464D01*
X424695D01*
X359567Y1033125D02*
X374802D01*
Y1040742D01*
X372263Y1043282D01*
X367184D01*
X364645Y1040742D01*
Y1033125D01*
Y1038203D02*
X359567Y1043282D01*
X372263Y1048360D02*
X374802Y1050899D01*
Y1055978D01*
X372263Y1058517D01*
X369724D01*
X367184Y1055978D01*
Y1053438D01*
Y1055978D01*
X364645Y1058517D01*
X362106D01*
X359567Y1055978D01*
Y1050899D01*
X362106Y1048360D01*
X450977Y1135507D02*
Y1150742D01*
X443359D01*
X440820Y1148203D01*
Y1143124D01*
X443359Y1140585D01*
X450977D01*
X445899D02*
X440820Y1135507D01*
X425585D02*
X435742D01*
X425585Y1145664D01*
Y1148203D01*
X428124Y1150742D01*
X433203D01*
X435742Y1148203D01*
X417449Y1068609D02*
X432684D01*
Y1076227D01*
X430145Y1078766D01*
X425066D01*
X422527Y1076227D01*
Y1068609D01*
Y1073687D02*
X417449Y1078766D01*
Y1083844D02*
Y1088922D01*
Y1086383D01*
X432684D01*
X430145Y1083844D01*
X668658Y1257934D02*
Y1268091D01*
X671198Y1270630D01*
X676276D01*
X678815Y1268091D01*
Y1257934D01*
X676276Y1255395D01*
X671198D01*
X673737Y1260473D02*
X668658Y1255395D01*
X671198D02*
X668658Y1257934D01*
X663580Y1255395D02*
X658502D01*
X661041D01*
Y1270630D01*
X663580Y1268091D01*
X907979Y1264242D02*
Y1249007D01*
X897822D01*
X892744D02*
X887665D01*
X890205D01*
Y1264242D01*
X892744Y1261703D01*
X284104Y1234570D02*
Y1239649D01*
Y1237110D01*
X296800D01*
X299339Y1239649D01*
Y1242188D01*
X296800Y1244727D01*
X299339Y1219335D02*
Y1229492D01*
X289182Y1219335D01*
X286643D01*
X284104Y1221874D01*
Y1226953D01*
X286643Y1229492D01*
X1069716Y1151760D02*
Y1146681D01*
Y1149221D01*
X1057020D01*
X1054481Y1146681D01*
Y1144142D01*
X1057020Y1141603D01*
X1054481Y1156838D02*
Y1161916D01*
Y1159377D01*
X1069716D01*
X1067177Y1156838D01*
X512953Y1262756D02*
Y1247521D01*
X505335D01*
X502796Y1250060D01*
Y1260217D01*
X505335Y1262756D01*
X512953D01*
X497718Y1247521D02*
X492640D01*
X495179D01*
Y1262756D01*
X497718Y1260217D01*
X917317Y910460D02*
X919856Y907921D01*
Y902842D01*
X917317Y900303D01*
X907160D01*
X904621Y902842D01*
Y907921D01*
X907160Y910460D01*
X904621Y923156D02*
X919856D01*
X912238Y915538D01*
Y925695D01*
X973566Y937383D02*
X976105Y939922D01*
X981184D01*
X983723Y937383D01*
Y927226D01*
X981184Y924687D01*
X976105D01*
X973566Y927226D01*
X968488Y937383D02*
X965949Y939922D01*
X960870D01*
X958331Y937383D01*
Y934844D01*
X960870Y932305D01*
X963410D01*
X960870D01*
X958331Y929765D01*
Y927226D01*
X960870Y924687D01*
X965949D01*
X968488Y927226D01*
X596376Y1003423D02*
X598915Y1005962D01*
X603994D01*
X606533Y1003423D01*
Y993266D01*
X603994Y990727D01*
X598915D01*
X596376Y993266D01*
X581141Y990727D02*
X591298D01*
X581141Y1000884D01*
Y1003423D01*
X583680Y1005962D01*
X588759D01*
X591298Y1003423D01*
X518036Y1046603D02*
X520575Y1049142D01*
X525654D01*
X528193Y1046603D01*
Y1036446D01*
X525654Y1033907D01*
X520575D01*
X518036Y1036446D01*
X512958Y1033907D02*
X507879D01*
X510419D01*
Y1049142D01*
X512958Y1046603D01*
D49*
X486390Y906490D02*
G03*
X486390Y906490I-1250J0D01*
G01*
X503112Y1176345D02*
G03*
X503112Y1176345I-1250J0D01*
G01*
X706290Y961000D02*
G03*
X706290Y961000I-1250J0D01*
G01*
X1026870Y1095620D02*
G03*
X1026870Y1095620I-1250J0D01*
G01*
X980720Y985990D02*
G03*
X980720Y985990I-1250J0D01*
G01*
D50*
X686390Y948450D02*
G03*
X686390Y948450I-3000J0D01*
G01*
X1006970Y1083070D02*
G03*
X1006970Y1083070I-3000J0D01*
G01*
D51*
X442640Y925240D02*
X471390D01*
X498890D02*
X527640D01*
X442640D02*
Y1000240D01*
X527640Y925240D02*
Y1000240D01*
X452640Y1010240D02*
X470140D01*
X500140D02*
X517640D01*
X442640Y1000240D02*
X452640Y1010240D01*
X517640D02*
X527640Y1000240D01*
X864446Y922421D02*
X872914D01*
X864446Y903839D02*
X872914D01*
X509400Y1195790D02*
Y1222290D01*
X493900D02*
X494188D01*
X509112D02*
X509400D01*
X493900Y1195790D02*
Y1222290D01*
Y1195790D02*
X494188D01*
X509112D02*
X509400D01*
X954490Y1241260D02*
X1024490D01*
X1030490D02*
X1044490D01*
X1018990Y1246760D02*
X1035990D01*
X954490Y1141260D02*
X1044490D01*
Y1241260D01*
X954490Y1141260D02*
Y1241260D01*
X1030490D02*
X1035990Y1246760D01*
X1018990D02*
X1024490Y1241260D01*
X329330Y1145070D02*
X334830Y1139570D01*
X317830D02*
X323330Y1145070D01*
X399330D02*
Y1245070D01*
X309330Y1145070D02*
Y1245070D01*
X399330D01*
X317830Y1139570D02*
X334830D01*
X309330Y1145070D02*
X323330D01*
X329330D02*
X399330D01*
X723150Y964060D02*
X799650D01*
X831650D02*
X908150D01*
X723150Y1239060D02*
X908150D01*
X831650Y964060D02*
Y986060D01*
X799650Y964060D02*
Y986060D01*
X831650D01*
X723150Y964060D02*
Y1239060D01*
X908150Y964060D02*
Y1239060D01*
X568950Y1123370D02*
Y1153220D01*
Y1123370D02*
X675650D01*
Y1153220D01*
X391239Y1069629D02*
Y1093751D01*
X408861Y1069629D02*
Y1093751D01*
X437650Y1116140D02*
X438650D01*
X437650Y1124140D02*
X438650D01*
X349920Y1032480D02*
Y1101080D01*
X302920D02*
X305770D01*
X324270D02*
X349920D01*
X302920Y1032480D02*
Y1101080D01*
Y1032480D02*
X305770D01*
X324270D02*
X349920D01*
X436760Y1169480D02*
X437760D01*
X436760Y1177480D02*
X437760D01*
X401220Y994849D02*
Y996296D01*
X388720Y994849D02*
Y996296D01*
X663520Y1003500D02*
X672520D01*
X663520Y1028500D02*
X672520D01*
X761761Y903819D02*
X788986D01*
X761761Y922441D02*
X788986D01*
X598460Y935120D02*
X602960D01*
X598460Y921620D02*
X602960D01*
X1020390Y957010D02*
X1029390D01*
X1020390Y981010D02*
X1029390D01*
X596400Y1032160D02*
X597400D01*
X596400Y1020160D02*
X597400D01*
X693440Y908950D02*
Y957950D01*
X661840Y908950D02*
Y957950D01*
X693440D01*
X661840Y908950D02*
X693440D01*
X1014020Y1043570D02*
Y1092570D01*
X982420Y1043570D02*
Y1092570D01*
X1014020D01*
X982420Y1043570D02*
X1014020D01*
X959470Y982740D02*
X969470D01*
X959470Y974990D02*
Y982740D01*
Y952740D02*
X969470D01*
X959470D02*
Y960490D01*
M02*
