G04*
G04 #@! TF.GenerationSoftware,Altium Limited,Altium Designer,25.2.1 (25)*
G04*
G04 Layer_Physical_Order=3*
G04 Layer_Color=16440176*
%FSLAX44Y44*%
%MOMM*%
G71*
G04*
G04 #@! TF.SameCoordinates,DD8B7BEB-8506-42D0-99FA-5800EA924771*
G04*
G04*
G04 #@! TF.FilePolarity,Positive*
G04*
G01*
G75*
%ADD12R,1.1000X1.1000*%
%ADD13C,1.1000*%
G04:AMPARAMS|DCode=19|XSize=1.95mm|YSize=1.95mm|CornerRadius=0.4875mm|HoleSize=0mm|Usage=FLASHONLY|Rotation=90.000|XOffset=0mm|YOffset=0mm|HoleType=Round|Shape=RoundedRectangle|*
%AMROUNDEDRECTD19*
21,1,1.9500,0.9750,0,0,90.0*
21,1,0.9750,1.9500,0,0,90.0*
1,1,0.9750,0.4875,0.4875*
1,1,0.9750,0.4875,-0.4875*
1,1,0.9750,-0.4875,-0.4875*
1,1,0.9750,-0.4875,0.4875*
%
%ADD19ROUNDEDRECTD19*%
%ADD20C,1.9500*%
%ADD21C,0.6096*%
%ADD22C,1.2700*%
%ADD23C,0.9144*%
G36*
X1076612Y1267482D02*
X1075744Y1107010D01*
X1073196Y1105494D01*
X1072789Y1105662D01*
X1070971D01*
X1069290Y1104966D01*
X1068004Y1103680D01*
X1067308Y1101999D01*
Y1100181D01*
X1068004Y1098500D01*
X1069290Y1097214D01*
X1070971Y1096518D01*
X1072789D01*
X1073148Y1096667D01*
X1075680Y1095106D01*
X1074450Y867565D01*
X286097D01*
X285765Y868364D01*
Y1270018D01*
X1074089D01*
X1076612Y1267482D01*
D02*
G37*
%LPC*%
G36*
X456839Y1245362D02*
X455021D01*
X453340Y1244666D01*
X452054Y1243380D01*
X451358Y1241699D01*
Y1239881D01*
X452054Y1238200D01*
X453340Y1236914D01*
X455021Y1236218D01*
X456839D01*
X458520Y1236914D01*
X459806Y1238200D01*
X460502Y1239881D01*
Y1241699D01*
X459806Y1243380D01*
X458520Y1244666D01*
X456839Y1245362D01*
D02*
G37*
G36*
X364205Y1231469D02*
X354455D01*
X351958Y1230973D01*
X349842Y1229558D01*
X348427Y1227442D01*
X347931Y1224945D01*
Y1215195D01*
X348427Y1212698D01*
X349842Y1210582D01*
X351958Y1209167D01*
X354455Y1208671D01*
X364205D01*
X366702Y1209167D01*
X368818Y1210582D01*
X370233Y1212698D01*
X370729Y1215195D01*
Y1224945D01*
X370233Y1227442D01*
X368818Y1229558D01*
X366702Y1230973D01*
X364205Y1231469D01*
D02*
G37*
G36*
X446679Y1216152D02*
X444861D01*
X443180Y1215456D01*
X441894Y1214170D01*
X441198Y1212489D01*
Y1210671D01*
X441894Y1208990D01*
X443180Y1207704D01*
X444861Y1207008D01*
X446679D01*
X448360Y1207704D01*
X449646Y1208990D01*
X450342Y1210671D01*
Y1212489D01*
X449646Y1214170D01*
X448360Y1215456D01*
X446679Y1216152D01*
D02*
G37*
G36*
X995974Y1227534D02*
X993006D01*
X990138Y1226766D01*
X987568Y1225281D01*
X985469Y1223182D01*
X983984Y1220612D01*
X983216Y1217744D01*
Y1214776D01*
X983984Y1211908D01*
X985469Y1209338D01*
X987568Y1207239D01*
X990138Y1205754D01*
X993006Y1204986D01*
X995974D01*
X998841Y1205754D01*
X1001412Y1207239D01*
X1003511Y1209338D01*
X1004996Y1211908D01*
X1005764Y1214776D01*
Y1217744D01*
X1004996Y1220612D01*
X1003511Y1223182D01*
X1001412Y1225281D01*
X998841Y1226766D01*
X995974Y1227534D01*
D02*
G37*
G36*
X360948Y1182360D02*
X360600D01*
Y1171340D01*
X371620D01*
Y1171688D01*
X370783Y1174814D01*
X369165Y1177616D01*
X366876Y1179904D01*
X364074Y1181523D01*
X360948Y1182360D01*
D02*
G37*
G36*
X358060D02*
X357712D01*
X354586Y1181523D01*
X351784Y1179904D01*
X349496Y1177616D01*
X347878Y1174814D01*
X347040Y1171688D01*
Y1171340D01*
X358060D01*
Y1182360D01*
D02*
G37*
G36*
X371620Y1168800D02*
X360600D01*
Y1157780D01*
X360948D01*
X364074Y1158617D01*
X366876Y1160236D01*
X369165Y1162524D01*
X370783Y1165326D01*
X371620Y1168452D01*
Y1168800D01*
D02*
G37*
G36*
X358060D02*
X347040D01*
Y1168452D01*
X347878Y1165326D01*
X349496Y1162524D01*
X351784Y1160236D01*
X354586Y1158617D01*
X357712Y1157780D01*
X358060D01*
Y1168800D01*
D02*
G37*
G36*
X999365Y1177659D02*
X989615D01*
X987118Y1177163D01*
X985002Y1175748D01*
X983587Y1173632D01*
X983091Y1171135D01*
Y1161385D01*
X983587Y1158888D01*
X985002Y1156772D01*
X987118Y1155357D01*
X989615Y1154861D01*
X999365D01*
X1001862Y1155357D01*
X1003978Y1156772D01*
X1005393Y1158888D01*
X1005889Y1161385D01*
Y1171135D01*
X1005393Y1173632D01*
X1003978Y1175748D01*
X1001862Y1177163D01*
X999365Y1177659D01*
D02*
G37*
G36*
X877134Y1162834D02*
X874166D01*
X871298Y1162066D01*
X868728Y1160581D01*
X866628Y1158482D01*
X865144Y1155912D01*
X864376Y1153044D01*
Y1150076D01*
X865144Y1147208D01*
X866628Y1144638D01*
X868728Y1142539D01*
X871298Y1141054D01*
X874166Y1140286D01*
X877134D01*
X880002Y1141054D01*
X882572Y1142539D01*
X884671Y1144638D01*
X886156Y1147208D01*
X886924Y1150076D01*
Y1153044D01*
X886156Y1155912D01*
X884671Y1158482D01*
X882572Y1160581D01*
X880002Y1162066D01*
X877134Y1162834D01*
D02*
G37*
G36*
X757134D02*
X754166D01*
X751298Y1162066D01*
X748728Y1160581D01*
X746628Y1158482D01*
X745144Y1155912D01*
X744376Y1153044D01*
Y1150076D01*
X745144Y1147208D01*
X746628Y1144638D01*
X748728Y1142539D01*
X751298Y1141054D01*
X754166Y1140286D01*
X757134D01*
X760002Y1141054D01*
X762572Y1142539D01*
X764671Y1144638D01*
X766156Y1147208D01*
X766924Y1150076D01*
Y1153044D01*
X766156Y1155912D01*
X764671Y1158482D01*
X762572Y1160581D01*
X760002Y1162066D01*
X757134Y1162834D01*
D02*
G37*
G36*
X300990Y1139163D02*
Y1131570D01*
X308583D01*
X308004Y1133731D01*
X306834Y1135759D01*
X305179Y1137414D01*
X303151Y1138584D01*
X300990Y1139163D01*
D02*
G37*
G36*
X298450D02*
X296289Y1138584D01*
X294261Y1137414D01*
X292606Y1135759D01*
X291436Y1133731D01*
X290857Y1131570D01*
X298450D01*
Y1139163D01*
D02*
G37*
G36*
X308583Y1129030D02*
X300990D01*
Y1121437D01*
X303151Y1122016D01*
X305179Y1123186D01*
X306834Y1124841D01*
X308004Y1126869D01*
X308583Y1129030D01*
D02*
G37*
G36*
X298450D02*
X290857D01*
X291436Y1126869D01*
X292606Y1124841D01*
X294261Y1123186D01*
X296289Y1122016D01*
X298450Y1121437D01*
Y1129030D01*
D02*
G37*
G36*
X391160Y1125662D02*
Y1121410D01*
X395412D01*
X394627Y1123305D01*
X393055Y1124877D01*
X391160Y1125662D01*
D02*
G37*
G36*
X388620D02*
X386725Y1124877D01*
X385153Y1123305D01*
X384368Y1121410D01*
X388620D01*
Y1125662D01*
D02*
G37*
G36*
X395412Y1118870D02*
X391160D01*
Y1114618D01*
X393055Y1115403D01*
X394627Y1116975D01*
X395412Y1118870D01*
D02*
G37*
G36*
X388620D02*
X384368D01*
X385153Y1116975D01*
X386725Y1115403D01*
X388620Y1114618D01*
Y1118870D01*
D02*
G37*
G36*
X953770Y1095413D02*
Y1089660D01*
X959523D01*
X959127Y1091135D01*
X958191Y1092757D01*
X956867Y1094081D01*
X955245Y1095017D01*
X953770Y1095413D01*
D02*
G37*
G36*
X951230D02*
X949755Y1095017D01*
X948133Y1094081D01*
X946809Y1092757D01*
X945873Y1091135D01*
X945477Y1089660D01*
X951230D01*
Y1095413D01*
D02*
G37*
G36*
X504190Y1095983D02*
Y1088390D01*
X511783D01*
X511204Y1090551D01*
X510034Y1092579D01*
X508379Y1094234D01*
X506351Y1095404D01*
X504190Y1095983D01*
D02*
G37*
G36*
X501650D02*
X499489Y1095404D01*
X497461Y1094234D01*
X495806Y1092579D01*
X494636Y1090551D01*
X494057Y1088390D01*
X501650D01*
Y1095983D01*
D02*
G37*
G36*
X315945Y1097954D02*
X314095D01*
X312309Y1097475D01*
X310707Y1096551D01*
X309399Y1095243D01*
X308475Y1093641D01*
X307996Y1091855D01*
Y1090005D01*
X308475Y1088219D01*
X309399Y1086617D01*
X310707Y1085309D01*
X312309Y1084385D01*
X314095Y1083906D01*
X315945D01*
X317731Y1084385D01*
X319333Y1085309D01*
X320641Y1086617D01*
X321565Y1088219D01*
X322044Y1090005D01*
Y1091855D01*
X321565Y1093641D01*
X320641Y1095243D01*
X319333Y1096551D01*
X317731Y1097475D01*
X315945Y1097954D01*
D02*
G37*
G36*
X959523Y1087120D02*
X953770D01*
Y1081367D01*
X955245Y1081763D01*
X956867Y1082699D01*
X958191Y1084023D01*
X959127Y1085645D01*
X959523Y1087120D01*
D02*
G37*
G36*
X951230D02*
X945477D01*
X945873Y1085645D01*
X946809Y1084023D01*
X948133Y1082699D01*
X949755Y1081763D01*
X951230Y1081367D01*
Y1087120D01*
D02*
G37*
G36*
X511783Y1085850D02*
X504190D01*
Y1078257D01*
X506351Y1078836D01*
X508379Y1080006D01*
X510034Y1081661D01*
X511204Y1083689D01*
X511783Y1085850D01*
D02*
G37*
G36*
X501650D02*
X494057D01*
X494636Y1083689D01*
X495806Y1081661D01*
X497461Y1080006D01*
X499489Y1078836D01*
X501650Y1078257D01*
Y1085850D01*
D02*
G37*
G36*
X341345Y1072554D02*
X339495D01*
X337709Y1072075D01*
X336107Y1071151D01*
X334799Y1069843D01*
X333875Y1068241D01*
X333396Y1066455D01*
Y1064605D01*
X333875Y1062819D01*
X334799Y1061217D01*
X336107Y1059909D01*
X337709Y1058985D01*
X339495Y1058506D01*
X341345D01*
X343131Y1058985D01*
X344733Y1059909D01*
X346041Y1061217D01*
X346965Y1062819D01*
X347444Y1064605D01*
Y1066455D01*
X346965Y1068241D01*
X346041Y1069843D01*
X344733Y1071151D01*
X343131Y1072075D01*
X341345Y1072554D01*
D02*
G37*
G36*
X1046423Y1055116D02*
X1043997D01*
X1041757Y1054188D01*
X1040042Y1052473D01*
X1039114Y1050233D01*
Y1047807D01*
X1040042Y1045567D01*
X1041757Y1043852D01*
X1043997Y1042924D01*
X1046423D01*
X1048663Y1043852D01*
X1050378Y1045567D01*
X1051306Y1047807D01*
Y1050233D01*
X1050378Y1052473D01*
X1048663Y1054188D01*
X1046423Y1055116D01*
D02*
G37*
G36*
X877134Y1062834D02*
X874166D01*
X871298Y1062066D01*
X868728Y1060581D01*
X866628Y1058482D01*
X865144Y1055912D01*
X864376Y1053044D01*
Y1050076D01*
X865144Y1047208D01*
X866628Y1044638D01*
X868728Y1042539D01*
X871298Y1041054D01*
X874166Y1040286D01*
X877134D01*
X880002Y1041054D01*
X882572Y1042539D01*
X884671Y1044638D01*
X886156Y1047208D01*
X886924Y1050076D01*
Y1053044D01*
X886156Y1055912D01*
X884671Y1058482D01*
X882572Y1060581D01*
X880002Y1062066D01*
X877134Y1062834D01*
D02*
G37*
G36*
X760525Y1062959D02*
X750775D01*
X748278Y1062463D01*
X746161Y1061048D01*
X744747Y1058932D01*
X744251Y1056435D01*
Y1046685D01*
X744747Y1044188D01*
X746161Y1042072D01*
X748278Y1040657D01*
X750775Y1040161D01*
X760525D01*
X763022Y1040657D01*
X765138Y1042072D01*
X766553Y1044188D01*
X767049Y1046685D01*
Y1056435D01*
X766553Y1058932D01*
X765138Y1061048D01*
X763022Y1062463D01*
X760525Y1062959D01*
D02*
G37*
G36*
X632099Y1044702D02*
X630281D01*
X628600Y1044006D01*
X627314Y1042720D01*
X626618Y1041039D01*
Y1039221D01*
X627314Y1037540D01*
X628600Y1036254D01*
X630281Y1035558D01*
X632099D01*
X633780Y1036254D01*
X635066Y1037540D01*
X635762Y1039221D01*
Y1041039D01*
X635066Y1042720D01*
X633780Y1044006D01*
X632099Y1044702D01*
D02*
G37*
G36*
X322044Y1047154D02*
X307996D01*
Y1033106D01*
X322044D01*
Y1047154D01*
D02*
G37*
G36*
X971189Y1028192D02*
X969371D01*
X967690Y1027496D01*
X966404Y1026210D01*
X965708Y1024529D01*
Y1022711D01*
X966404Y1021030D01*
X967690Y1019744D01*
X969371Y1019048D01*
X971189D01*
X972870Y1019744D01*
X974156Y1021030D01*
X974852Y1022711D01*
Y1024529D01*
X974156Y1026210D01*
X972870Y1027496D01*
X971189Y1028192D01*
D02*
G37*
G36*
X823869Y1015492D02*
X822051D01*
X820370Y1014796D01*
X819084Y1013510D01*
X818388Y1011829D01*
Y1010011D01*
X819084Y1008330D01*
X820370Y1007044D01*
X822051Y1006348D01*
X823869D01*
X825550Y1007044D01*
X826836Y1008330D01*
X827532Y1010011D01*
Y1011829D01*
X826836Y1013510D01*
X825550Y1014796D01*
X823869Y1015492D01*
D02*
G37*
G36*
X539389Y997712D02*
X537571D01*
X535890Y997016D01*
X534604Y995730D01*
X533908Y994049D01*
Y992231D01*
X534604Y990550D01*
X535890Y989264D01*
X537571Y988568D01*
X539389D01*
X541070Y989264D01*
X542356Y990550D01*
X543052Y992231D01*
Y994049D01*
X542356Y995730D01*
X541070Y997016D01*
X539389Y997712D01*
D02*
G37*
G36*
X666389Y986282D02*
X664571D01*
X662890Y985586D01*
X661604Y984300D01*
X660908Y982619D01*
Y980801D01*
X661604Y979120D01*
X662890Y977834D01*
X664571Y977138D01*
X666389D01*
X668070Y977834D01*
X669356Y979120D01*
X670052Y980801D01*
Y982619D01*
X669356Y984300D01*
X668070Y985586D01*
X666389Y986282D01*
D02*
G37*
G36*
X933089Y972312D02*
X931271D01*
X929590Y971616D01*
X928304Y970330D01*
X927608Y968649D01*
Y966831D01*
X928304Y965150D01*
X929590Y963864D01*
X931271Y963168D01*
X933089D01*
X934770Y963864D01*
X936056Y965150D01*
X936752Y966831D01*
Y968649D01*
X936056Y970330D01*
X934770Y971616D01*
X933089Y972312D01*
D02*
G37*
G36*
X395879Y968502D02*
X394061D01*
X392380Y967806D01*
X391094Y966520D01*
X390398Y964839D01*
Y963021D01*
X391094Y961340D01*
X392380Y960054D01*
X394061Y959358D01*
X395879D01*
X397560Y960054D01*
X398846Y961340D01*
X399542Y963021D01*
Y964839D01*
X398846Y966520D01*
X397560Y967806D01*
X395879Y968502D01*
D02*
G37*
G36*
X628650Y958022D02*
Y953770D01*
X632902D01*
X632117Y955665D01*
X630545Y957237D01*
X628650Y958022D01*
D02*
G37*
G36*
X626110D02*
X624215Y957237D01*
X622643Y955665D01*
X621858Y953770D01*
X626110D01*
Y958022D01*
D02*
G37*
G36*
X632902Y951230D02*
X628650D01*
Y946978D01*
X630545Y947763D01*
X632117Y949335D01*
X632902Y951230D01*
D02*
G37*
G36*
X626110D02*
X621858D01*
X622643Y949335D01*
X624215Y947763D01*
X626110Y946978D01*
Y951230D01*
D02*
G37*
G36*
X1013460Y933892D02*
Y929640D01*
X1017712D01*
X1016927Y931535D01*
X1015355Y933107D01*
X1013460Y933892D01*
D02*
G37*
G36*
X1010920D02*
X1009025Y933107D01*
X1007453Y931535D01*
X1006668Y929640D01*
X1010920D01*
Y933892D01*
D02*
G37*
G36*
X387117Y940054D02*
X385043D01*
X383041Y939517D01*
X381245Y938481D01*
X379779Y937015D01*
X378743Y935219D01*
X378206Y933217D01*
Y931143D01*
X378743Y929141D01*
X379779Y927345D01*
X381245Y925879D01*
X383041Y924843D01*
X385043Y924306D01*
X387117D01*
X389119Y924843D01*
X390915Y925879D01*
X392381Y927345D01*
X393417Y929141D01*
X393954Y931143D01*
Y933217D01*
X393417Y935219D01*
X392381Y937015D01*
X390915Y938481D01*
X389119Y939517D01*
X387117Y940054D01*
D02*
G37*
G36*
X1017712Y927100D02*
X1013460D01*
Y922848D01*
X1015355Y923633D01*
X1016927Y925205D01*
X1017712Y927100D01*
D02*
G37*
G36*
X1010920D02*
X1006668D01*
X1007453Y925205D01*
X1009025Y923633D01*
X1010920Y922848D01*
Y927100D01*
D02*
G37*
G36*
X627019Y921512D02*
X625201D01*
X623520Y920816D01*
X622234Y919530D01*
X621538Y917849D01*
Y916031D01*
X622234Y914350D01*
X623520Y913064D01*
X625201Y912368D01*
X627019D01*
X628700Y913064D01*
X629986Y914350D01*
X630682Y916031D01*
Y917849D01*
X629986Y919530D01*
X628700Y920816D01*
X627019Y921512D01*
D02*
G37*
G36*
X727349Y918972D02*
X725531D01*
X723850Y918276D01*
X722564Y916990D01*
X721868Y915309D01*
Y913491D01*
X722564Y911810D01*
X723850Y910524D01*
X725531Y909828D01*
X727349D01*
X729030Y910524D01*
X730316Y911810D01*
X731012Y913491D01*
Y915309D01*
X730316Y916990D01*
X729030Y918276D01*
X727349Y918972D01*
D02*
G37*
%LPD*%
D12*
X315020Y1040130D02*
D03*
D13*
X340420Y1065530D02*
D03*
X315020Y1090930D02*
D03*
D19*
X994490Y1166260D02*
D03*
X359330Y1220070D02*
D03*
X755650Y1051560D02*
D03*
D20*
X994490Y1216260D02*
D03*
X359330Y1170070D02*
D03*
X755650Y1151560D02*
D03*
X875650Y1051560D02*
D03*
Y1151560D02*
D03*
D21*
X631190Y1040130D02*
D03*
X970280Y1023620D02*
D03*
X822960Y1010920D02*
D03*
X538480Y993140D02*
D03*
X1071880Y1101090D02*
D03*
X626110Y916940D02*
D03*
X665480Y981710D02*
D03*
X627380Y952500D02*
D03*
X394970Y963930D02*
D03*
X455930Y1240790D02*
D03*
X445770Y1211580D02*
D03*
X389890Y1120140D02*
D03*
X1012190Y928370D02*
D03*
X726440Y914400D02*
D03*
X932180Y967740D02*
D03*
D22*
X386080Y932180D02*
D03*
X502920Y1087120D02*
D03*
X299720Y1130300D02*
D03*
D23*
X1045210Y1049020D02*
D03*
X952500Y1088390D02*
D03*
M02*
